<svg width="33" height="33" fill="none" xmlns="http://www.w3.org/2000/svg"><path d="M0 16.5C0 7.387 7.387 0 16.5 0S33 7.387 33 16.5 25.613 33 16.5 33 0 25.613 0 16.5z" fill="#fff"/><path fill-rule="evenodd" clip-rule="evenodd" d="M20.12 5.227c.174 1.173-.304 2.322-.934 3.136-.674.872-1.836 1.547-2.961 1.511-.206-1.123.32-2.28.96-3.058.703-.86 1.906-1.518 2.936-1.59zm3.382 16.514c.58-.889.797-1.338 1.248-2.342-3.276-1.246-3.801-5.904-.559-7.692-.989-1.24-2.379-1.959-3.69-1.959-.946 0-1.594.247-2.182.471-.491.187-.94.358-1.488.358-.591 0-1.115-.187-1.663-.384-.602-.216-1.234-.442-2.019-.442-1.472 0-3.039.9-4.033 2.437-1.396 2.166-1.158 6.238 1.107 9.707.81 1.241 1.891 2.636 3.306 2.649.587.005.977-.17 1.4-.36.484-.216 1.01-.452 1.92-.457.916-.006 1.433.233 1.91.453.413.19.795.366 1.377.36 1.416-.011 2.557-1.557 3.366-2.799z" fill="#0B0B0A"/></svg>