<svg width="33" height="33" fill="none" xmlns="http://www.w3.org/2000/svg"><path d="M16.5 33C25.613 33 33 25.613 33 16.5S25.613 0 16.5 0 0 7.387 0 16.5 7.387 33 16.5 33z" fill="#fff"/><path d="M23.13 19.833l4.332-2.401c.49-.271 1.002-.964 0-1.518l-4.334-2.394-3.103 3.166 3.106 3.147z" fill="#FFE300"/><path d="M20.027 16.684L10.103 26.81c.225.03.494-.031.804-.203l12.225-6.778-3.105-3.146z" fill="#FF4E54"/><path d="M20.026 16.686l3.102-3.167-12.222-6.754a1.165 1.165 0 00-.81-.14l9.93 10.06z" fill="#00F085"/><path d="M20.026 16.686l-9.93-10.061c-.41.093-.746.452-.746 1.175v17.806c0 .68.264 1.16.753 1.207l9.923-10.127z" fill="#00E0FF"/></svg>