<svg width="63" height="61" fill="none" xmlns="http://www.w3.org/2000/svg"><path d="M50.234 36.585a.787.787 0 100-1.573.787.787 0 000 1.573zm2.101-2.433a.788.788 0 10-.002 1.576.788.788 0 00.002-1.576zm2.058-.636a.747.747 0 10-.003 1.494.747.747 0 00.003-1.494zm1.481 7.524a.222.222 0 00.059-.092 25.936 25.936 0 001.168-5.837c0-.087-.018-.185-.12-.138-1.38.578-2.71 1.195-4.052 1.794a.202.202 0 00-.115.155 30.58 30.58 0 01-2.108 7.592.204.204 0 00.295.254 37.192 37.192 0 004.873-3.729zM42.482 56.365a26.088 26.088 0 0012.688-13.36.203.203 0 00-.315-.24 37.563 37.563 0 01-4.853 3.377.194.194 0 00-.078.082 30.992 30.992 0 01-7.664 9.8.204.204 0 00.222.341z" fill="#5B5C78"/><path d="M48.384 47.042a37.226 37.226 0 01-16.748 4.198.2.2 0 00-.2.197 821.239 821.239 0 00-.034 7.294.207.207 0 00.207.207 26.007 26.007 0 007.277-1.15.237.237 0 00.057-.028 30.402 30.402 0 009.707-10.442.203.203 0 00-.266-.276z" fill="#5B5C78"/><path d="M52.094 37.495a.205.205 0 00-.286-.218c-.763.352-2.596 1.198-3.572 1.633-.397.175-.599.12-.77-.323-.192-.494-.446-.966-.701-1.48a.209.209 0 00-.276-.096c-.575.264-1.122.504-1.657.778-.353.182-.519.1-.676-.25-.45-1.004-.932-1.994-1.41-3.013l-.797-1.7c-.19-.403-.377-.803-.566-1.202l-.024-.049a39.954 39.954 0 00-.474-.973.534.534 0 00-.398-.204 2.316 2.316 0 00-.705.192c-1.23.56-2.418.414-3.643-.07a24.283 24.283 0 00-2.386-.761 2.694 2.694 0 00-1.71.088c-.667.264-1.328.544-1.998.803a1.622 1.622 0 00-.948.978c-.29.84-.701 1.656-.545 2.584.043.204.138.395.276.552a.19.19 0 00.123.07 1.357 1.357 0 00.693-.074 1.67 1.67 0 00.628-.434.425.425 0 00.109-.117c.473-.501.818-.842 1.002-1.299a1.4 1.4 0 00.119-.422c.059-.344.21-.773.287-.697.077.075.073.447.063.668-.014.34.106.497.456.448.62-.087 1.137.08 1.38.52 0 0 .17.398.776.917.307.262 1.136 1.166 1.265 1.309a510.097 510.097 0 004.394 4.75c.429.453.62.932.375 1.517-.245.586-.7.801-1.308.754-.05 0-.148-.026-.185.015-.038.042.018.114.02.122.264.702.202 1.267-.485 1.671-.768.452-1.317.091-1.832-.465a.201.201 0 00-.344.091c-.127.552-.406.933-.987 1.069-.58.135-.966-.138-1.34-.504a.202.202 0 00-.337.095c-.018.068-.036.138-.056.193a1.265 1.265 0 01-2.044.579l-.07-.063c-.026.85-.063 2.4-.092 4.902a.21.21 0 00.129.196.21.21 0 00.08.017 36.592 36.592 0 0017.793-4.867.207.207 0 00.084-.092 29.919 29.919 0 002.57-8.138zM9.03 32.576a30.69 30.69 0 018.558-21.287.203.203 0 00-.255-.312 26.011 26.011 0 00-10.827 30.09.228.228 0 00.06.092 37.133 37.133 0 004.52 3.478.205.205 0 00.329-.12.205.205 0 00-.022-.137A30.593 30.593 0 019.03 32.576zm21.56 18.65a37.215 37.215 0 01-16.876-4.312.204.204 0 00-.276.276 30.414 30.414 0 009.55 10.404c.016.011.035.02.054.026a25.933 25.933 0 007.51 1.301.206.206 0 00.194-.127.206.206 0 00.016-.08c0-2.96.015-5.36.034-7.286a.202.202 0 00-.206-.202z" fill="#5B5C78"/><path d="M19.55 55.73a31.01 31.01 0 01-7.388-9.646.187.187 0 00-.076-.081 37.51 37.51 0 01-4.491-3.136.204.204 0 00-.314.24 26.078 26.078 0 0012.043 12.955.203.203 0 00.227-.332zm35.711-31.324l.207-.059a.206.206 0 00.139-.268A26.432 26.432 0 0040.303 8.661a.203.203 0 00-.267.139l-.061.207a.203.203 0 00.121.245 25.803 25.803 0 0114.921 15.023.202.202 0 00.244.131zM30.943 42.943c-.432-.396-.954-.375-1.574.057a4.327 4.327 0 01-.386.223.065.065 0 01-.083-.095c.4-.712 1.12-1.462.276-2.056-.455-.324-1.432.08-1.853.317-.076.043-.12-.02-.068-.091.39-.526 1.17-1.389.468-2.014-.828-.737-1.962.47-2.091.483a.068.068 0 01-.068-.088c.011-.051.276-.315.392-.467.393-.495.456-1.093.035-1.543-.421-.45-1.054-.458-1.569-.054-.335.263-.818.776-.985.784-.338.018-.737-.35-1.084-.622-.828-.652-.753-.598-.349-1.37 1.05-2 1.918-4.092 2.89-6.13.104-.216.188-.61.021-.742l-13.273-7.078a.206.206 0 00-.288.112 30.154 30.154 0 001.206 22.935.2.2 0 00.085.09 36.577 36.577 0 0017.943 4.997.209.209 0 00.209-.204c.037-3.2.087-4.857.109-5.478.028-.129.07-.253.124-.373.319-.668.326-1.22-.087-1.593zm-17.125-7.662a.797.797 0 01-.773-.773.77.77 0 01.966-.744.21.21 0 01.062.024c.958.52.406 1.49-.255 1.493zm2.356.536a.263.263 0 01-.055.055c-.808.573-1.697-.316-1.123-1.122a.21.21 0 01.056-.055c.806-.576 1.696.314 1.122 1.122zm1.139 1.266a.791.791 0 01-.773-.77.8.8 0 01.78-.77.776.776 0 01.759.778.751.751 0 01-.766.762zm8.727-22.645a.76.76 0 01-.636-.648l-.69-5.011-3.993 1.592-.308 1.487a.596.596 0 01-1.173-.025l-.156-1.194-.642.268a.29.29 0 01-.384-.157.294.294 0 01.158-.384l.64-.268-.836-.818a.599.599 0 01.73-.921l1.34.71 3.693-2.264-3.422-3.727a.761.761 0 01.972-1.153l1.932 1.243.201-.24a.385.385 0 01.354-.139.384.384 0 01.233.623l-.138.168.773.499.254-.305a.382.382 0 11.588.49l-.195.236 1.418.912 3.618-1.702s1.188-.527 1.932-.414a.64.64 0 01.486.308c.552 1.023-1.538 2.1-1.538 2.1l-3.577 1.682-.173 1.446.563.045h.03a.382.382 0 01-.09.759l-.593-.047-.109.907.34.026h.029a.382.382 0 01-.09.758l-.37-.03-.3 2.527a.76.76 0 01-.87.66" fill="#5B5C78"/><path d="M32.788 3.603c-.425-.782-2.425.107-2.425.107l-3.618 1.702-1.41-.913.194-.232a.383.383 0 10-.588-.49l-.254.305-.773-.498.138-.168a.382.382 0 00-.586-.49l-.202.24-1.932-1.242a.76.76 0 00-.966 1.152l3.421 3.727-3.697 2.266-1.342-.71a.598.598 0 00-.73.92l.835.819-.64.268a.294.294 0 00.001.541.294.294 0 00.225 0l.642-.268.156 1.194a.596.596 0 001.173.025l.308-1.487 3.993-1.593.69 5.012a.76.76 0 001.507-.012l.3-2.52.37.028a.382.382 0 00.06-.762l-.34-.026.11-.907.592.047a.382.382 0 00.06-.762l-.562-.044.172-1.447 3.578-1.682s2.092-1.077 1.54-2.1z" fill="#8E8FA7"/><path d="M19.956 9.588l-1.917.836a.279.279 0 00-.144.367l.016.038a.279.279 0 00.367.144l1.917-.836a.279.279 0 00.144-.367l-.016-.038a.279.279 0 00-.367-.144z" fill="#5B5C78"/></svg>