<svg width="46" height="51" viewBox="0 0 46 51" fill="none" xmlns="http://www.w3.org/2000/svg">
<path d="M39.9124 30.8364C40.2976 30.8364 40.6099 30.5241 40.6099 30.1389C40.6099 29.7537 40.2976 29.4414 39.9124 29.4414C39.5271 29.4414 39.2148 29.7537 39.2148 30.1389C39.2148 30.5241 39.5271 30.8364 39.9124 30.8364Z" fill="white"/>
<path d="M41.7769 28.6797C41.6388 28.6794 41.5039 28.7201 41.389 28.7966C41.2741 28.8731 41.1846 28.982 41.1316 29.1094C41.0786 29.2369 41.0646 29.3771 41.0914 29.5125C41.1182 29.6479 41.1845 29.7723 41.282 29.87C41.3795 29.9676 41.5038 30.0342 41.6391 30.0612C41.7744 30.0882 41.9147 30.0745 42.0423 30.0217C42.1698 29.969 42.2788 29.8796 42.3555 29.7648C42.4322 29.6501 42.4731 29.5152 42.4731 29.3772C42.4731 29.1924 42.3998 29.0152 42.2693 28.8844C42.1387 28.7536 41.9616 28.68 41.7769 28.6797Z" fill="white"/>
<path d="M43.6007 28.1133C43.4698 28.113 43.3416 28.1517 43.2326 28.2243C43.1236 28.2969 43.0385 28.4002 42.9882 28.5211C42.938 28.6421 42.9247 28.7752 42.9501 28.9037C42.9755 29.0322 43.0384 29.1503 43.131 29.243C43.2235 29.3357 43.3415 29.3989 43.4699 29.4245C43.5984 29.4502 43.7315 29.4371 43.8526 29.387C43.9736 29.337 44.0771 29.2521 44.1499 29.1432C44.2227 29.0343 44.2615 28.9063 44.2615 28.7753C44.2615 28.5999 44.192 28.4317 44.0681 28.3076C43.9442 28.1835 43.7761 28.1136 43.6007 28.1133Z" fill="white"/>
<path d="M44.9125 34.7913C44.9365 34.7691 44.9545 34.7414 44.9651 34.7105C45.5077 33.031 45.8551 31.2945 46.0004 29.5355C46.0004 29.4584 45.9845 29.3715 45.8939 29.4131C44.6702 29.9259 43.4918 30.4728 42.3023 31.0039C42.2751 31.0163 42.2514 31.0354 42.2335 31.0593C42.2155 31.0833 42.2038 31.1114 42.1996 31.141C41.8695 33.4556 41.2415 35.7178 40.331 37.8713C40.3158 37.9067 40.3124 37.946 40.3211 37.9835C40.3298 38.021 40.3502 38.0547 40.3794 38.0798C40.4086 38.1049 40.445 38.1201 40.4834 38.1231C40.5218 38.126 40.5601 38.1167 40.5928 38.0965C42.1213 37.1156 43.5661 36.0101 44.9125 34.7913Z" fill="white"/>
<path d="M33.0416 48.3679C38.107 45.919 42.106 41.7077 44.2898 36.5225C44.3063 36.4854 44.3097 36.4439 44.2996 36.4046C44.2895 36.3653 44.2665 36.3306 44.2342 36.3061C44.2018 36.2816 44.1622 36.2687 44.1217 36.2696C44.0811 36.2704 44.042 36.2849 44.0108 36.3108C42.6575 37.42 41.2189 38.4208 39.7083 39.3039C39.6787 39.3211 39.6548 39.3466 39.6397 39.3774C37.9853 42.703 35.6736 45.6586 32.8446 48.0656C32.809 48.0936 32.7852 48.1339 32.7778 48.1785C32.7704 48.2232 32.7801 48.269 32.8048 48.3069C32.8295 48.3448 32.8675 48.3721 32.9113 48.3834C32.9552 48.3947 33.0016 48.3891 33.0416 48.3679Z" fill="white"/>
<path d="M38.2758 40.1027C33.6864 42.4897 28.6002 43.7644 23.4275 43.824C23.3809 43.824 23.3361 43.8423 23.3029 43.8751C23.2697 43.9078 23.2507 43.9523 23.2501 43.999C23.2342 45.7048 23.2219 47.8353 23.2207 50.465C23.2207 50.5137 23.24 50.5604 23.2745 50.5948C23.3089 50.6292 23.3556 50.6485 23.4043 50.6485C25.5922 50.6166 27.7644 50.2734 29.8556 49.6292C29.8733 49.6233 29.8902 49.6151 29.9058 49.6047C33.4677 47.2448 36.4176 44.0718 38.512 40.3475C38.529 40.3141 38.5352 40.2763 38.5296 40.2393C38.5241 40.2022 38.5072 40.1678 38.4812 40.1409C38.4552 40.114 38.4214 40.0958 38.3846 40.089C38.3478 40.0821 38.3098 40.0869 38.2758 40.1027Z" fill="white"/>
<path d="M41.5638 31.6416C41.5689 31.6094 41.5652 31.5763 41.553 31.546C41.5409 31.5157 41.5208 31.4892 41.4948 31.4694C41.4688 31.4496 41.438 31.4372 41.4056 31.4335C41.3731 31.4297 41.3403 31.4348 41.3105 31.4483C40.6338 31.7603 39.0087 32.5104 38.1436 32.8959C37.7912 33.0513 37.6125 33.0024 37.4608 32.6096C37.2907 32.1715 37.0655 31.753 36.8391 31.2965C36.8175 31.2532 36.7798 31.2201 36.734 31.2043C36.6882 31.1885 36.6381 31.1913 36.5944 31.2121C36.0853 31.4458 35.5995 31.6587 35.1259 31.9023C34.8127 32.0638 34.6658 31.9904 34.5263 31.6795C34.1274 30.7899 33.7003 29.9125 33.2757 29.0094L32.5696 27.5018C32.4008 27.1445 32.2356 26.7897 32.0679 26.436L32.0471 26.3932C31.9027 26.0897 31.7779 25.8291 31.6262 25.5305C31.584 25.4766 31.5307 25.4326 31.4698 25.4013C31.409 25.37 31.3421 25.3523 31.2737 25.3494C31.0576 25.3726 30.8466 25.43 30.6484 25.5195C29.5581 26.0163 28.5045 25.8866 27.4191 25.4571C26.7259 25.1961 26.0197 24.971 25.3033 24.7828C24.8033 24.6436 24.2715 24.6711 23.7884 24.8611C23.1961 25.0948 22.61 25.3432 22.0165 25.5733C21.822 25.6482 21.6461 25.7645 21.5009 25.9141C21.3558 26.0637 21.2448 26.243 21.1758 26.4397C20.9188 27.1849 20.5542 27.9081 20.6924 28.7304C20.7304 28.912 20.8147 29.0806 20.9372 29.2199C20.9644 29.2536 21.0033 29.2758 21.0461 29.2823C21.235 29.3109 21.4279 29.2941 21.609 29.2334C21.6267 29.2295 21.6439 29.2238 21.6604 29.2162C21.8732 29.1328 22.0637 29.0013 22.2172 28.832C22.2557 28.8038 22.2885 28.7685 22.3138 28.728C22.7336 28.2838 23.0395 27.9815 23.2022 27.5765C23.2568 27.458 23.2924 27.3316 23.3075 27.202C23.3601 26.8973 23.4935 26.5168 23.562 26.5841C23.6305 26.6514 23.6269 26.9806 23.6183 27.1763C23.6061 27.4774 23.7125 27.6169 24.0221 27.574C24.5728 27.497 25.0305 27.645 25.2458 28.0354C25.2458 28.0354 25.3963 28.3878 25.9335 28.8479C26.2064 29.0804 26.9406 29.8819 27.0557 30.008C28.3467 31.4189 29.6401 32.8225 30.9507 34.2187C31.3313 34.6213 31.5014 35.0459 31.2835 35.5648C31.0657 36.0836 30.6631 36.2745 30.1235 36.2329C30.0794 36.2329 29.9925 36.2097 29.9595 36.2464C29.9265 36.2831 29.9754 36.3467 29.9779 36.3541C30.2116 36.9769 30.1565 37.4774 29.5471 37.836C28.8667 38.2361 28.3797 37.9167 27.9233 37.4236C27.9012 37.3999 27.8731 37.3826 27.842 37.3736C27.8109 37.3647 27.778 37.3643 27.7467 37.3726C27.7154 37.3809 27.687 37.3975 27.6644 37.4207C27.6418 37.4439 27.626 37.4728 27.6186 37.5043C27.506 37.9938 27.2588 38.3316 26.7436 38.4515C26.2284 38.5714 25.887 38.3291 25.5554 38.0048C25.5329 37.9828 25.505 37.967 25.4745 37.9592C25.444 37.9514 25.4119 37.9518 25.3816 37.9604C25.3513 37.969 25.3238 37.9854 25.3019 38.008C25.28 38.0307 25.2644 38.0587 25.2568 38.0893C25.2409 38.1492 25.225 38.2116 25.2067 38.2606C25.1515 38.4395 25.0524 38.6017 24.9185 38.7325C24.7845 38.8633 24.62 38.9586 24.4399 39.0095C24.2597 39.0605 24.0697 39.0656 23.8871 39.0243C23.7045 38.9831 23.5351 38.8968 23.3944 38.7733L23.332 38.7182C23.3099 39.4708 23.2769 40.8463 23.2512 43.0636C23.2509 43.0882 23.2554 43.1127 23.2646 43.1355C23.2738 43.1584 23.2875 43.1792 23.3048 43.1967C23.3221 43.2142 23.3427 43.2281 23.3654 43.2376C23.3882 43.2471 23.4126 43.252 23.4372 43.252C28.9772 43.1844 34.4076 41.6989 39.2106 38.9373C39.2432 38.9186 39.2692 38.8904 39.2853 38.8565C40.3857 36.5728 41.153 34.1431 41.5638 31.6416Z" fill="white"/>
<path d="M3.38441 27.2785C3.37862 20.2436 6.09778 13.4799 10.9713 8.40667C11.002 8.37498 11.0201 8.3331 11.0219 8.289C11.0238 8.2449 11.0093 8.20166 10.9814 8.1675C10.9534 8.13335 10.9139 8.11067 10.8703 8.10377C10.8267 8.09688 10.7821 8.10625 10.7449 8.13011C6.4029 10.8729 3.1007 14.9866 1.3619 19.8191C-0.3769 24.6516 -0.45279 29.9262 1.14626 34.8067C1.15703 34.8375 1.17508 34.8652 1.19888 34.8874C2.45371 36.0166 3.79353 37.0475 5.20649 37.9712C5.23908 37.9976 5.27983 38.0118 5.32177 38.0115C5.36371 38.0112 5.40425 37.9963 5.43645 37.9695C5.46866 37.9426 5.49055 37.9054 5.49837 37.8642C5.5062 37.823 5.49949 37.7804 5.47937 37.7436C4.09482 34.4284 3.38272 30.8712 3.38441 27.2785Z" fill="white"/>
<path d="M22.4974 43.8204C17.2778 43.7477 12.15 42.4375 7.53525 39.9975C7.50103 39.9795 7.46191 39.9728 7.42364 39.9786C7.38537 39.9844 7.34994 40.0022 7.32258 40.0296C7.29521 40.057 7.27733 40.0924 7.27156 40.1307C7.26579 40.1689 7.27243 40.2081 7.29051 40.2423C9.35001 43.9383 12.2505 47.0978 15.7573 49.4653C15.7719 49.4754 15.788 49.4833 15.805 49.4885C17.9554 50.199 20.199 50.5879 22.4631 50.6425C22.4874 50.6428 22.5116 50.6383 22.5341 50.6292C22.5567 50.6201 22.5772 50.6067 22.5945 50.5896C22.6118 50.5725 22.6255 50.5522 22.6349 50.5297C22.6443 50.5073 22.6491 50.4832 22.6491 50.4589C22.6491 47.8341 22.6626 45.7061 22.6797 43.999C22.6797 43.9753 22.675 43.9517 22.6658 43.9298C22.6566 43.9079 22.6431 43.888 22.6261 43.8714C22.6091 43.8547 22.589 43.8417 22.5669 43.8329C22.5448 43.8241 22.5211 43.8199 22.4974 43.8204Z" fill="white"/>
<path d="M12.7116 47.8123C9.98559 45.4218 7.75938 42.5156 6.16115 39.2612C6.14653 39.2308 6.12306 39.2057 6.09384 39.189C4.70054 38.3605 3.36969 37.4313 2.11193 36.4087C2.08032 36.3844 2.04154 36.3711 2.00163 36.3711C1.96172 36.371 1.92291 36.3842 1.89124 36.4085C1.85957 36.4327 1.8368 36.4668 1.82648 36.5054C1.81615 36.5439 1.81885 36.5848 1.83416 36.6216C3.94631 41.5771 7.72259 45.6395 12.5109 48.1073C12.5499 48.1269 12.5947 48.1317 12.637 48.1208C12.6792 48.1099 12.7161 48.0839 12.7406 48.0479C12.7652 48.0118 12.7758 47.968 12.7705 47.9246C12.7651 47.8813 12.7442 47.8414 12.7116 47.8123Z" fill="white"/>
<path d="M44.3701 20.0367L44.5537 19.9841C44.5778 19.9773 44.6003 19.9656 44.6197 19.9498C44.6391 19.934 44.6551 19.9143 44.6666 19.892C44.678 19.8697 44.6848 19.8453 44.6864 19.8203C44.6881 19.7953 44.6845 19.7702 44.676 19.7467C43.512 16.6372 41.7005 13.8106 39.3615 11.4542C37.0226 9.09772 34.2096 7.26518 31.1089 6.07798C31.0854 6.0691 31.0602 6.06525 31.0351 6.06671C31.0099 6.06816 30.9854 6.07487 30.963 6.0864C30.9406 6.09793 30.9209 6.11403 30.9052 6.13366C30.8894 6.15329 30.8779 6.17601 30.8715 6.20035L30.8177 6.3839C30.8051 6.4271 30.8092 6.47342 30.8292 6.51374C30.8491 6.55406 30.8834 6.58545 30.9254 6.60172C33.9468 7.75987 36.6882 9.54586 38.9685 11.8417C41.2488 14.1376 43.016 16.8911 44.1535 19.9204C44.1679 19.9638 44.1983 20.0001 44.2386 20.0217C44.2789 20.0434 44.326 20.0487 44.3701 20.0367Z" fill="white"/>
<path d="M22.8102 36.4719C22.4271 36.1207 21.9646 36.1391 21.4151 36.5221C21.3044 36.594 21.19 36.6602 21.0725 36.7203C21.061 36.7263 21.0479 36.7283 21.0352 36.7259C21.0225 36.7235 21.0109 36.7168 21.0025 36.7071C20.994 36.6973 20.989 36.685 20.9884 36.6721C20.9878 36.6591 20.9916 36.6464 20.9991 36.6359C21.3527 36.0045 21.9915 35.34 21.2438 34.8126C20.84 34.5262 19.9736 34.8835 19.6004 35.094C19.5331 35.132 19.4939 35.0757 19.5404 35.0133C19.8855 34.547 20.5781 33.7822 19.9553 33.2279C19.221 32.5744 18.2164 33.6452 18.1014 33.6562C18.0917 33.6566 18.082 33.6548 18.0732 33.6507C18.0644 33.6466 18.0568 33.6404 18.0509 33.6327C18.045 33.625 18.041 33.616 18.0394 33.6065C18.0377 33.5969 18.0384 33.5871 18.0414 33.5779C18.0512 33.5326 18.2861 33.2989 18.3889 33.1643C18.7377 32.7249 18.7928 32.1951 18.4195 31.7962C18.0463 31.3972 17.4859 31.3899 17.0294 31.7484C16.7321 31.9809 16.3038 32.4362 16.1557 32.4435C15.8559 32.4594 15.5022 32.1327 15.1951 31.8916C14.4609 31.314 14.527 31.3617 14.8855 30.6777C15.8155 28.9046 16.5852 27.0494 17.4479 25.242C17.5397 25.0511 17.6143 24.7012 17.4663 24.5849L5.69921 18.3098C5.67619 18.2978 5.65088 18.2908 5.62495 18.2893C5.59902 18.2879 5.57308 18.292 5.54887 18.3014C5.52465 18.3108 5.50272 18.3252 5.48454 18.3438C5.46636 18.3623 5.45236 18.3845 5.44346 18.4089C3.10386 25.0623 3.48828 32.3706 6.51297 38.7419C6.52901 38.7758 6.55506 38.804 6.58761 38.8226C11.4192 41.6472 16.8996 43.1733 22.4957 43.2524C22.544 43.2524 22.5905 43.2334 22.625 43.1996C22.6596 43.1657 22.6795 43.1197 22.6804 43.0713C22.7135 40.2348 22.7575 38.7651 22.7771 38.2144C22.8019 38.1007 22.8388 37.9899 22.8872 37.8841C23.1699 37.2918 23.176 36.8023 22.8102 36.4719ZM7.62776 29.6792C7.44776 29.6736 7.27665 29.5997 7.14932 29.4723C7.02198 29.345 6.94801 29.1739 6.94248 28.9939C6.94236 28.8894 6.96626 28.7863 7.01234 28.6925C7.05843 28.5987 7.12545 28.5168 7.20825 28.453C7.29104 28.3893 7.38738 28.3454 7.48983 28.3248C7.59227 28.3042 7.69808 28.3075 7.79907 28.3343C7.8184 28.3383 7.83699 28.3454 7.85414 28.3551C8.70338 28.8165 8.21391 29.6755 7.62776 29.6792ZM9.71661 30.154C9.70282 30.1726 9.68633 30.1891 9.66766 30.2029C8.9518 30.7107 8.16373 29.9227 8.67279 29.208C8.6859 29.1888 8.7025 29.1722 8.72174 29.1591C9.43638 28.6488 10.2257 29.4381 9.71661 30.154ZM10.7262 31.2761C10.5461 31.2721 10.3745 31.1989 10.2469 31.0718C10.1193 30.9447 10.0456 30.7733 10.0409 30.5933C10.048 30.4131 10.1234 30.2424 10.2518 30.1158C10.3802 29.9892 10.552 29.9162 10.7323 29.9117C10.9123 29.9155 11.0837 29.9898 11.2095 30.1187C11.3354 30.2475 11.4057 30.4205 11.4053 30.6006C11.4066 30.69 11.39 30.7787 11.3562 30.8615C11.3225 30.9443 11.2725 31.0195 11.2091 31.0825C11.1457 31.1456 11.0703 31.1952 10.9873 31.2284C10.9044 31.2617 10.8155 31.2779 10.7262 31.2761Z" fill="white"/>
<path d="M18.4638 11.1998C18.3205 11.1777 18.1881 11.1099 18.0865 11.0065C17.9848 10.903 17.9193 10.7696 17.8997 10.6259L17.2878 6.18266L13.7477 7.5948L13.4748 8.91272C13.4501 9.03412 13.3836 9.14302 13.2869 9.2204C13.1902 9.29778 13.0693 9.33873 12.9455 9.33611C12.8217 9.33349 12.7027 9.28746 12.6093 9.20605C12.5159 9.12464 12.4541 9.01303 12.4346 8.8907L12.2963 7.8322L11.7273 8.06959C11.683 8.08845 11.6342 8.09439 11.5866 8.08673C11.5427 8.07999 11.5013 8.06203 11.4663 8.03459C11.4314 8.00715 11.4041 7.97116 11.3871 7.93009C11.3607 7.86647 11.3606 7.79496 11.3867 7.73121C11.4128 7.66746 11.4632 7.61666 11.5266 7.58991L12.0944 7.35251L11.3529 6.62686C11.2991 6.56508 11.2604 6.49168 11.2397 6.41241C11.2191 6.33315 11.2171 6.25018 11.234 6.17002C11.2508 6.08986 11.286 6.0147 11.3368 5.95044C11.3876 5.88617 11.4526 5.83455 11.5266 5.79964C11.6011 5.7647 11.6826 5.74751 11.7647 5.74942C11.8469 5.75133 11.9275 5.77229 12.0002 5.81065L13.1884 6.44086L16.4618 4.43277L13.4283 1.12879C13.3342 1.02573 13.2744 0.896025 13.2572 0.757561C13.24 0.619097 13.2661 0.478694 13.332 0.355714C13.3979 0.232735 13.5004 0.133235 13.6252 0.0709364C13.7501 0.00863765 13.8912 -0.0133914 14.0291 0.00788631C14.1219 0.0227125 14.2106 0.0564504 14.2898 0.107005L16.0029 1.20833L16.1816 0.995408C16.2188 0.949707 16.2672 0.914418 16.3221 0.892975C16.377 0.871531 16.4365 0.864662 16.4949 0.873038C16.5552 0.882961 16.6117 0.908721 16.6588 0.947684C16.7275 1.0055 16.7705 1.0881 16.7785 1.17749C16.7865 1.26688 16.7589 1.35581 16.7017 1.42493L16.5793 1.57422L17.2646 2.01597L17.4897 1.74553C17.5473 1.67641 17.63 1.63299 17.7196 1.62485C17.8093 1.6167 17.8984 1.64449 17.9676 1.70209C18.0367 1.7597 18.0801 1.84241 18.0883 1.93202C18.0964 2.02164 18.0686 2.11082 18.011 2.17995L17.8385 2.3892L19.0952 3.19806L22.3025 1.68925C22.3025 1.68925 23.3561 1.22179 24.0157 1.32214C24.1038 1.33089 24.1886 1.36012 24.2634 1.40751C24.3382 1.45489 24.4009 1.5191 24.4464 1.59502C24.9359 2.50178 23.0832 3.45626 23.0832 3.45626L19.9114 4.94795L19.7584 6.23038L20.2577 6.26954H20.2834C20.371 6.2821 20.4501 6.32839 20.504 6.3985C20.5579 6.46862 20.5822 6.55702 20.5719 6.64484C20.5615 6.73267 20.5172 6.81296 20.4484 6.86858C20.3797 6.9242 20.2919 6.95076 20.2039 6.94257L19.6789 6.90097L19.5822 7.70493L19.8833 7.72819H19.909C19.9936 7.74383 20.0692 7.7911 20.1202 7.86041C20.1713 7.92972 20.1941 8.01586 20.184 8.10136C20.1739 8.18686 20.1316 8.2653 20.0657 8.32076C19.9999 8.37622 19.9154 8.40455 19.8294 8.39999L19.5015 8.3743L19.2359 10.6137C19.222 10.727 19.1795 10.8349 19.1125 10.9273C19.0455 11.0198 18.9562 11.0937 18.8529 11.1423C18.7319 11.2002 18.5962 11.2198 18.4638 11.1986" fill="white"/>
<path d="M24.4475 1.59171C24.0706 0.897871 22.2974 1.68593 22.2974 1.68593L19.0901 3.19475L17.8395 2.38588L18.0121 2.1803C18.0697 2.11118 18.0975 2.022 18.0893 1.93238C18.0812 1.84277 18.0378 1.76006 17.9686 1.70245C17.8995 1.64484 17.8103 1.61706 17.7207 1.6252C17.6311 1.63335 17.5484 1.67676 17.4908 1.74589L17.2656 2.01633L16.5803 1.57457L16.7027 1.42528C16.7572 1.35598 16.7826 1.26816 16.7734 1.18047C16.7642 1.09278 16.7212 1.01211 16.6536 0.955588C16.5859 0.899065 16.4989 0.871133 16.411 0.87772C16.323 0.884308 16.2411 0.924895 16.1826 0.990871L16.004 1.20379L14.2908 0.102469C14.153 0.0184785 13.9897 -0.013328 13.8305 0.0128238C13.6713 0.0389755 13.5268 0.12135 13.4231 0.244995C13.3194 0.368639 13.2636 0.525354 13.2656 0.686686C13.2676 0.848017 13.3275 1.00327 13.4342 1.12425L16.4678 4.42823L13.1895 6.43754L12 5.80734C11.8907 5.74957 11.7646 5.73186 11.6436 5.75729C11.5225 5.78272 11.4142 5.84968 11.3374 5.94657C11.2605 6.04347 11.22 6.16419 11.2228 6.28783C11.2256 6.41147 11.2716 6.53023 11.3527 6.62355L12.093 7.3492L11.5253 7.58659C11.4938 7.59977 11.4652 7.61902 11.4411 7.64325C11.4171 7.66748 11.398 7.69621 11.385 7.7278C11.3721 7.75939 11.3655 7.79321 11.3656 7.82736C11.3657 7.8615 11.3726 7.89528 11.3858 7.92678C11.3989 7.95828 11.4182 7.98687 11.4424 8.01093C11.4666 8.03498 11.4954 8.05403 11.527 8.06699C11.5585 8.07994 11.5924 8.08654 11.6265 8.08642C11.6607 8.0863 11.6944 8.07946 11.7259 8.06628L12.295 7.82888L12.4332 8.88738C12.4527 9.00972 12.5145 9.12133 12.6079 9.20274C12.7013 9.28414 12.8203 9.33017 12.9441 9.3328C13.068 9.33542 13.1888 9.29447 13.2855 9.21708C13.3823 9.1397 13.4487 9.03081 13.4734 8.90941L13.7463 7.59149L17.2864 6.17934L17.8983 10.6226C17.9215 10.7841 18.0025 10.9317 18.1262 11.038C18.25 11.1443 18.4081 11.2022 18.5712 11.2009C18.7344 11.1995 18.8915 11.1391 19.0135 11.0307C19.1354 10.9223 19.214 10.7734 19.2345 10.6116L19.5001 8.3771L19.828 8.4028C19.9161 8.40716 20.0023 8.37707 20.0685 8.3189C20.1348 8.26072 20.1757 8.17905 20.1827 8.09119C20.1897 8.00333 20.1622 7.91619 20.1061 7.84826C20.0499 7.78033 19.9695 7.73695 19.8819 7.72732L19.5808 7.70407L19.6775 6.9001L20.2025 6.9417C20.2905 6.94607 20.3768 6.91598 20.443 6.8578C20.5092 6.79963 20.5502 6.71795 20.5572 6.63009C20.5642 6.54223 20.5367 6.4551 20.4805 6.38717C20.4243 6.31924 20.3439 6.27586 20.2563 6.26622L19.7571 6.22707L19.91 4.94463L23.0818 3.45295C23.0818 3.45295 24.937 2.49847 24.4475 1.59171Z" fill="#BABABA"/>
<path d="M13.0705 6.90236L11.3711 7.64338C11.246 7.69795 11.1888 7.84363 11.2433 7.96877L11.258 8.00242C11.3126 8.12756 11.4583 8.18476 11.5834 8.1302L13.2828 7.38918C13.4079 7.33461 13.4651 7.18893 13.4105 7.06379L13.3959 7.03014C13.3413 6.905 13.1956 6.8478 13.0705 6.90236Z" fill="#BABABA"/>
</svg>
