<svg width="46" height="51" fill="none" xmlns="http://www.w3.org/2000/svg"><path d="M39.912 30.836a.698.698 0 100-1.395.698.698 0 000 1.395zm1.865-2.156a.697.697 0 10-.003 1.394.697.697 0 00.003-1.394zm1.823-.567a.662.662 0 10-.002 1.323.662.662 0 00.003-1.323zm1.313 6.678a.197.197 0 00.052-.08A22.99 22.99 0 0046 29.536c0-.078-.016-.165-.106-.123-1.224.513-2.402 1.06-3.592 1.59a.179.179 0 00-.102.138 27.112 27.112 0 01-1.869 6.73.18.18 0 00.262.225 32.972 32.972 0 004.32-3.305zM33.042 48.368A23.128 23.128 0 0044.29 36.522a.18.18 0 00-.28-.211 33.296 33.296 0 01-4.302 2.993.173.173 0 00-.068.073 27.475 27.475 0 01-6.795 8.689.181.181 0 00.197.302z" fill="#fff"/><path d="M38.276 40.103a33.003 33.003 0 01-14.849 3.721.177.177 0 00-.177.175 728.902 728.902 0 00-.03 6.466.183.183 0 00.184.183 23.055 23.055 0 006.452-1.019.21.21 0 00.05-.024 26.953 26.953 0 008.606-9.258.18.18 0 00-.127-.258.18.18 0 00-.11.014z" fill="#fff"/><path d="M41.564 31.642a.18.18 0 00-.254-.194c-.676.312-2.301 1.062-3.166 1.448-.353.155-.532.106-.683-.286-.17-.438-.395-.857-.622-1.313a.185.185 0 00-.245-.085c-.509.234-.995.447-1.468.69-.313.162-.46.088-.6-.223-.399-.89-.826-1.766-1.25-2.67l-.706-1.507c-.17-.357-.334-.712-.502-1.066l-.02-.043c-.145-.303-.27-.564-.422-.863a.473.473 0 00-.352-.18c-.216.023-.427.08-.626.17-1.09.496-2.143.367-3.229-.063-.693-.26-1.4-.486-2.116-.674a2.389 2.389 0 00-1.515.078c-.592.234-1.178.482-1.771.712a1.44 1.44 0 00-.841.867c-.257.745-.622 1.468-.484 2.29.038.182.123.35.245.49a.173.173 0 00.11.062 1.204 1.204 0 00.613-.066c.213-.083.404-.215.557-.384a.376.376 0 00.097-.104c.42-.444.726-.747.888-1.152.055-.118.09-.244.105-.374.053-.305.187-.685.255-.618.069.067.065.397.056.592-.012.301.095.44.404.398.55-.077 1.009.071 1.224.461 0 0 .15.353.688.813.272.232 1.007 1.034 1.122 1.16a450.021 450.021 0 003.895 4.21c.38.403.55.828.332 1.347-.217.519-.62.71-1.16.668-.044 0-.13-.023-.164.013-.032.037.016.1.019.108.234.623.178 1.123-.43 1.482-.681.4-1.168.08-1.625-.412a.18.18 0 00-.259-.003.178.178 0 00-.045.083c-.113.49-.36.828-.875.948-.516.12-.857-.123-1.189-.447a.18.18 0 00-.253.003.18.18 0 00-.045.081c-.016.06-.032.123-.05.172a1.122 1.122 0 01-1.813.512l-.062-.055a249.43 249.43 0 00-.08 4.346.186.186 0 00.185.188 32.439 32.439 0 0015.774-4.315.184.184 0 00.074-.08 26.522 26.522 0 002.279-7.215zm-38.18-4.363a27.209 27.209 0 017.587-18.872.18.18 0 00-.226-.277 23.06 23.06 0 00-9.599 26.677c.011.03.03.058.053.08a32.92 32.92 0 004.007 3.084.181.181 0 00.273-.227 27.122 27.122 0 01-2.095-10.465zM22.497 43.82a32.993 32.993 0 01-14.962-3.822.181.181 0 00-.244.244 26.964 26.964 0 008.466 9.223c.015.01.031.018.048.023a22.95 22.95 0 006.658 1.154.184.184 0 00.186-.183c0-2.625.014-4.753.03-6.46a.179.179 0 00-.182-.179z" fill="#fff"/><path d="M12.712 47.812a27.491 27.491 0 01-6.55-8.55.166.166 0 00-.068-.073 33.253 33.253 0 01-3.982-2.78.181.181 0 00-.278.213 23.12 23.12 0 0010.677 11.485.18.18 0 00.26-.182.18.18 0 00-.06-.113zM44.37 20.037l.184-.053a.184.184 0 00.132-.164.18.18 0 00-.01-.073A23.431 23.431 0 0031.109 6.078a.18.18 0 00-.238.122l-.053.184a.18.18 0 00.107.218A22.877 22.877 0 0144.154 19.92a.179.179 0 00.216.117zM22.81 36.472c-.383-.351-.845-.333-1.395.05a3.75 3.75 0 01-.342.198.057.057 0 01-.074-.084c.354-.632.992-1.296.245-1.823-.404-.287-1.27.07-1.644.281-.067.038-.106-.018-.06-.08.346-.467 1.038-1.232.415-1.786-.734-.654-1.739.417-1.854.428a.06.06 0 01-.05-.023.06.06 0 01-.01-.055c.01-.045.245-.28.348-.414.349-.44.404-.969.03-1.368-.373-.399-.933-.406-1.39-.048-.297.233-.725.688-.873.695-.3.016-.654-.31-.96-.551-.735-.578-.669-.53-.31-1.214.93-1.773 1.7-3.629 2.562-5.436.092-.19.166-.54.018-.657L5.7 18.31a.184.184 0 00-.214.034.182.182 0 00-.042.065 26.733 26.733 0 001.07 20.333.183.183 0 00.075.08 32.428 32.428 0 0015.908 4.43.185.185 0 00.184-.18c.034-2.837.078-4.307.097-4.858.025-.113.062-.224.11-.33.283-.592.289-1.082-.077-1.412zM7.628 29.679a.707.707 0 01-.686-.685.682.682 0 01.857-.66.19.19 0 01.055.021c.85.462.36 1.32-.226 1.324zm2.089.475a.234.234 0 01-.05.049c-.715.508-1.503-.28-.994-.995a.186.186 0 01.049-.049c.714-.51 1.504.28.995.995zm1.01 1.122a.701.701 0 01-.686-.683.71.71 0 01.691-.681.687.687 0 01.673.689.664.664 0 01-.679.675zM18.464 11.2a.673.673 0 01-.564-.574l-.612-4.443-3.54 1.412-.273 1.318a.53.53 0 01-1.04-.022l-.139-1.059-.569.238a.259.259 0 01-.34-.338.26.26 0 01.14-.142l.567-.237-.741-.726A.53.53 0 0112 5.81l1.188.63 3.274-2.008-3.034-3.304A.674.674 0 0114.29.107l1.713 1.101.179-.213a.341.341 0 01.313-.122.34.34 0 01.207.552l-.123.15.686.441.225-.27a.34.34 0 11.521.434l-.172.21 1.256.808 3.207-1.509s1.054-.467 1.714-.367a.568.568 0 01.43.273c.49.907-1.363 1.861-1.363 1.861l-3.172 1.492-.153 1.282.5.04h.025a.339.339 0 01-.08.673L19.68 6.9l-.097.804.301.023h.026a.339.339 0 01-.08.672l-.328-.026-.265 2.24a.674.674 0 01-.772.585" fill="#fff"/><path d="M24.448 1.592c-.377-.694-2.15.094-2.15.094L19.09 3.195l-1.25-.81.172-.205a.339.339 0 10-.521-.434l-.225.27-.686-.441.123-.15a.339.339 0 00-.52-.434l-.179.213L14.291.102a.674.674 0 00-.857 1.022l3.034 3.304-3.278 2.01-1.19-.63a.53.53 0 00-.647.816l.74.725-.568.238a.26.26 0 00.101.5.26.26 0 00.1-.02l.569-.238.138 1.058a.529.529 0 001.04.022l.273-1.318 3.54-1.412.612 4.444a.674.674 0 001.337-.011l.265-2.235.328.026a.339.339 0 00.054-.676l-.301-.023.096-.804.526.042a.339.339 0 00.053-.676l-.499-.039.153-1.282 3.172-1.492s1.855-.955 1.366-1.861z" fill="#BABABA"/><path d="M13.07 6.902l-1.699.741a.247.247 0 00-.128.326l.015.033c.055.126.2.183.325.128l1.7-.74a.247.247 0 00.128-.326l-.015-.034a.247.247 0 00-.326-.128z" fill="#BABABA"/></svg>