<svg width="14" height="14" fill="none" xmlns="http://www.w3.org/2000/svg"><path d="M13.877 2.781L9.63 7l4.246 4.218c.076-.16.123-.337.123-.527V3.308c0-.189-.046-.366-.123-.527zm-1.107-.703H1.23c-.19 0-.366.047-.527.123l5.427 5.4c.48.48 1.26.48 1.74 0l5.426-5.4a1.216 1.216 0 00-.527-.123zM.123 2.781A1.23 1.23 0 000 3.308v7.383c0 .19.047.367.123.527L4.37 7 .123 2.78z" fill="#888"/><path d="M9.05 7.578l-.6.601c-.8.8-2.1.8-2.9 0l-.601-.6-4.246 4.218c.16.076.338.123.527.123h11.54c.189 0 .366-.047.527-.123L9.05 7.578z" fill="#888"/></svg>