<svg width="14" height="14" viewBox="0 0 14 14" fill="none" xmlns="http://www.w3.org/2000/svg">
<path d="M13.8768 2.78125L9.63086 6.99982L13.8768 11.2184C13.9535 11.058 14.0001 10.8806 14.0001 10.6912V3.30841C14.0001 3.119 13.9535 2.94168 13.8768 2.78125Z" fill="#888888"/>
<path d="M12.7693 2.07812H1.23029C1.04087 2.07812 0.863551 2.12469 0.703125 2.20145L6.12985 7.60084C6.60968 8.08067 7.38996 8.08067 7.86978 7.60084L13.2965 2.20145C13.1361 2.12469 12.9588 2.07812 12.7693 2.07812Z" fill="#888888"/>
<path d="M0.12332 2.78125C0.0465664 2.94168 0 3.119 0 3.30841V10.6912C0 10.8806 0.0465664 11.058 0.12332 11.2184L4.36923 6.99982L0.12332 2.78125Z" fill="#888888"/>
<path d="M9.0506 7.57812L8.44977 8.17895C7.65027 8.97845 6.34934 8.97845 5.54983 8.17895L4.94903 7.57812L0.703125 11.7967C0.863551 11.8734 1.04087 11.92 1.23029 11.92H12.7693C12.9588 11.92 13.1361 11.8734 13.2965 11.7967L9.0506 7.57812Z" fill="#888888"/>
</svg>
