<svg width="18" height="18" fill="none" xmlns="http://www.w3.org/2000/svg"><path d="M17.033 9.464c.36-.476.56-1.06.56-1.669 0-.965-.538-1.878-1.407-2.387a1.453 1.453 0 00-.736-.2h-5.152l.129-2.64A2.3 2.3 0 009.793.862 2.29 2.29 0 008.119.145a2.498 2.498 0 00-2.402 1.828L3.872 8.655h-.007v9.195h10.147c.198 0 .391-.039.57-.116a2.762 2.762 0 001.566-3.339 2.765 2.765 0 00.445-2.464 2.77 2.77 0 00.56-1.67 2.933 2.933 0 00-.12-.797zM.406 9.342v7.82c0 .38.307.688.688.688H2.49V8.655H1.094a.687.687 0 00-.688.687z" fill="#888"/></svg>